# xmcd
#
# Track frame offsets:
#	150
#	13335
#	31295
#	47967
#	63477
#	84450
#	97562
#	116079
#	131820
#	147880
#	163650
#	176837
#	194797
#	211470
#	226980
#	247952
#	261065
#	279585
#	295322
#	311385
#
# Disc length: 4362 seconds
#
# Revision: 2
# Processed by: cddbd v1.5.2PL0 Copyright (c) Steve Scherf et al.
# Submitted via: audiograbber 1.83.01
#
DISCID=2a110814
DTITLE=Various Artist - THMC0208
DYEAR=1900
DGENRE=Karaoke
TTITLE0=Little Big Town - Don't Waste My Time (Vocals)
TTITLE1=Coe, David Allen - If That Ain't Country (Vocals)
TTITLE2=Sixwire - Look At Me Now (Vocals)
TTITLE3=Marie Sisters - Real Bad Mood (Vocals)
TTITLE4=McBride, Martina - Where Would You Be (Vocals)
TTITLE5=Vassar, Phil - American Child (Vocals)
TTITLE6=Howard, Rebecca Lynn - Forgive (Vocals)
TTITLE7=Messina, Jo Dee - Dare To Dream (Vocals)
TTITLE8=Cagle, Chris - Country By The Grace Of God (Vocals)
TTITLE9=Chesney, Kenny - The Good Stuff (Vocals)
TTITLE10=Little Big Town - Don't Waste My Time
TTITLE11=Coe, David Allen - If That Ain't Country
TTITLE12=Sixwire - Look At Me Now
TTITLE13=Marie Sisters - Real Bad Mood
TTITLE14=McBride, Martina - Where Would You Be
TTITLE15=Vassar, Phil - American Child
TTITLE16=Howard, Rebecca Lynn - Forgive
TTITLE17=Messina, Jo Dee - Dare To Dream
TTITLE18=Cagle, Chris - Country By The Grace Of God
TTITLE19=Chesney, Kenny - The Good Stuff
EXTD=
EXTT0=
EXTT1=
EXTT2=
EXTT3=
EXTT4=
EXTT5=
EXTT6=
EXTT7=
EXTT8=
EXTT9=
EXTT10=
EXTT11=
EXTT12=
EXTT13=
EXTT14=
EXTT15=
EXTT16=
EXTT17=
EXTT18=
EXTT19=
PLAYORDER=
